<svg width="186" height="170" viewBox="0 0 186 170" fill="none" xmlns="http://www.w3.org/2000/svg">
<path d="M94.4103 163.28C139.499 163.28 176.051 126.729 176.051 81.6402C176.051 36.5516 139.499 0 94.4103 0C49.3217 0 12.7701 36.5516 12.7701 81.6402C12.7701 126.729 49.3217 163.28 94.4103 163.28Z" fill="#FF5400"/>
<path d="M171.846 165.632C168.026 168.001 163.148 167.741 159.568 165.033C152.94 160.009 145.254 151.81 137.382 143.046C133.442 138.288 128.491 135.52 121.737 136.299H63.7362C56.9886 135.52 52.031 138.288 48.0981 143.046C47.8852 143.286 47.6723 143.519 47.4594 143.752C39.8067 152.249 32.3536 160.142 25.912 165.033C22.3252 167.741 17.4541 168.001 13.6278 165.632C4.16509 159.796 1.37681 148.829 2.44151 135.347C2.44819 135.221 2.46146 135.094 2.47474 134.961C2.69434 132.213 3.08696 129.365 3.61264 126.43C3.61264 126.417 3.61264 126.397 3.61931 126.383C3.65921 126.157 3.70586 125.924 3.74576 125.698C6.24123 112.163 11.5315 96.957 17.3276 82.184C19.0445 77.8119 20.8013 73.4799 22.5447 69.2343C23.0505 68.0099 23.5496 66.7788 24.0486 65.5743L29.0728 62.6929L29.1527 62.4267L30.2374 58.4473C30.7032 56.7238 31.9077 55.2864 33.5247 54.5278C40.725 51.1207 48.1581 48.6053 55.8639 47.1413C56.0636 47.1014 56.2566 47.0614 56.4561 47.0281C57.9335 46.7619 59.464 47.0481 60.755 47.8333L66.418 51.287C68.2147 52.3916 70.2843 52.9772 72.4004 52.9772H113.079C115.189 52.9772 117.258 52.3916 119.062 51.287L124.718 47.8333C126.003 47.0481 127.54 46.7619 129.024 47.0281C136.929 48.4788 144.562 51.0342 151.948 54.5277C153.566 55.2864 154.763 56.7237 155.242 58.4472L156.4 62.6928L161.424 65.5742C161.957 66.8585 162.496 68.1628 163.028 69.4737C170.734 88.2195 178.713 108.775 181.854 126.397C184.982 143.918 183.325 158.545 171.846 165.632Z" fill="#5E6C7A"/>
<path d="M19.3252 167.45C17.3245 167.45 15.3214 166.901 13.5288 165.791C4.75147 160.378 1.06372 150.415 2.25464 135.332C2.26049 135.213 2.27332 135.089 2.28652 134.96C2.49929 132.297 2.87212 129.5 3.42802 126.397C3.42652 126.4 3.42321 126.378 3.43754 126.335C3.45696 126.226 3.47782 126.115 3.49837 126.005C3.51997 125.891 3.54156 125.777 3.56136 125.665C6.33794 110.605 12.6481 93.598 17.1529 82.1156C18.6482 78.3081 20.3064 74.1925 22.3711 69.1631C22.6043 68.5985 22.8361 68.0327 23.0672 67.4687C23.3371 66.809 23.6063 66.1517 23.8754 65.5024L23.8999 65.4433L28.9144 62.5674L28.973 62.3728L30.0562 58.3981C30.5382 56.6148 31.7734 55.1421 33.4452 54.3581C40.8207 50.8677 48.3522 48.3776 55.8287 46.9571L55.9188 46.939C56.0884 46.9049 56.2543 46.8716 56.4253 46.8432C57.9484 46.5682 59.5216 46.8634 60.8524 47.673L66.5158 51.1269C68.285 52.2147 70.3197 52.7897 72.4005 52.7897H113.08C115.153 52.7897 117.188 52.2147 118.964 51.127L124.62 47.6731C125.946 46.8625 127.523 46.5683 129.057 46.8435C136.737 48.2527 144.465 50.7809 152.029 54.3581C153.689 55.1371 154.926 56.6093 155.423 58.3971L156.561 62.5686L161.573 65.4432L161.598 65.5024C162.13 66.7872 162.67 68.0918 163.202 69.4033C171.164 88.7726 178.958 109.079 182.038 126.364C185.63 146.484 182.328 159.38 171.944 165.791L171.944 165.791C168.104 168.173 163.085 167.929 159.455 165.182C152.731 160.086 144.805 151.591 137.242 143.172C132.932 137.966 127.866 135.781 121.759 136.485L63.7363 136.486C57.5986 135.779 52.5409 137.965 48.2426 143.166C48.0364 143.398 47.8343 143.619 47.6321 143.84L47.5977 143.878C40.3145 151.966 32.6592 160.145 26.0253 165.182C24.0306 166.689 21.6799 167.45 19.3252 167.45ZM3.79889 126.443L3.79709 126.463C3.24336 129.554 2.87204 132.339 2.66144 134.976C2.64682 135.121 2.63467 135.239 2.62844 135.357C1.44922 150.29 5.07952 160.14 13.7261 165.472C17.4952 167.806 22.2343 167.575 25.7986 164.883C32.4076 159.865 40.0479 151.701 47.3201 143.626L47.3557 143.587C47.556 143.368 47.7571 143.148 47.9577 142.922C52.3398 137.62 57.5107 135.393 63.7579 136.112L121.737 136.111C127.962 135.392 133.134 137.621 137.526 142.927C145.072 151.327 152.983 159.806 159.681 164.884C163.189 167.537 168.037 167.774 171.746 165.472L171.747 165.472C181.985 159.152 185.23 146.381 181.669 126.43C178.595 109.18 170.809 88.8959 162.855 69.5451C162.331 68.2541 161.8 66.9701 161.276 65.7052L156.24 62.8171L155.062 58.4968C154.594 56.8152 153.43 55.4302 151.869 54.6976C144.334 51.134 136.637 48.6157 128.99 47.2126C127.545 46.9534 126.063 47.2311 124.816 47.9933L119.16 51.4471C117.325 52.5708 115.223 53.1648 113.08 53.1648H72.4004C70.2504 53.1648 68.1476 52.5707 66.3199 51.4467L60.6571 47.9933C59.4043 47.2314 57.9219 46.9541 56.4893 47.2127C56.3201 47.2408 56.1579 47.2735 55.9927 47.3066L55.9005 47.3252C48.4532 48.74 40.9525 51.2202 33.6049 54.6973C32.0327 55.4347 30.8715 56.8193 30.4181 58.4963L29.2309 62.8183L24.1973 65.7051C23.9365 66.3346 23.6758 66.9715 23.414 67.6107C23.1829 68.1751 22.9511 68.7412 22.7179 69.3059C20.6539 74.3331 18.9964 78.4471 17.5023 82.2526C13.003 93.7205 6.70094 110.704 3.93014 125.732C3.91072 125.844 3.88874 125.959 3.86714 126.074C3.84554 126.189 3.82394 126.303 3.80376 126.416L3.79889 126.443Z" fill="#0F227A"/>
<g opacity="0.55">
<path d="M181.854 126.303C178.713 108.682 170.734 88.1257 163.028 69.38C162.496 68.069 161.957 66.7647 161.424 65.4803L156.4 62.599L155.242 58.3534C154.763 56.6298 153.565 55.1925 151.948 54.4339C144.562 50.9402 136.929 48.3849 129.024 46.9343C127.54 46.6681 126.002 46.9542 124.718 47.7395L119.062 51.1931C118.969 51.25 118.873 51.2995 118.779 51.3536C118.356 51.104 117.82 51.0665 117.351 51.3064C116.935 51.5189 116.669 51.902 116.581 52.3259C115.453 52.6892 114.274 52.8833 113.079 52.8833H72.4002C71.864 52.8833 71.3309 52.845 70.8043 52.7709C70.8621 52.1825 70.5653 51.5919 70.0068 51.3063C69.2785 50.9339 68.3854 51.2225 68.0126 51.9509L67.9907 51.9938C67.4489 51.7671 66.9218 51.5028 66.4179 51.193L60.7549 47.7393C59.464 46.9541 57.9334 46.6679 56.4561 46.9341C56.2565 46.9673 56.0635 47.0073 55.8639 47.0472C48.158 48.5112 40.7249 51.0266 33.5247 54.4337C31.9077 55.1924 30.7032 56.6297 30.2373 58.3532L29.1526 62.3327L29.0727 62.5988L24.0486 65.4802C23.5494 66.6847 23.0504 67.9158 22.5447 69.1402C20.8011 73.3858 19.0443 77.7179 17.3274 82.0899C11.5314 96.863 6.24101 112.069 3.74561 125.604C3.70571 125.83 3.65906 126.063 3.61916 126.289C3.61248 126.303 3.61248 126.323 3.61248 126.336C3.08681 129.271 2.69418 132.119 2.47451 134.867C2.46123 135 2.44788 135.126 2.44121 135.253C2.24681 137.715 2.18253 140.092 2.26233 142.371C2.29638 141.309 2.35466 140.231 2.44121 139.135C2.44788 139.009 2.46123 138.882 2.47451 138.749C2.69411 136.001 3.08673 133.153 3.61248 130.218C3.61248 130.205 3.61248 130.185 3.61916 130.171C3.65906 129.945 3.70563 129.712 3.74561 129.486C6.24108 115.951 11.5314 100.745 17.3274 85.9721C19.0443 81.6001 20.8011 77.268 22.5447 73.0224C23.0504 71.798 23.5494 70.5669 24.0486 69.3624L29.0727 66.4811L29.1526 66.2149L30.2373 62.2355C30.7032 60.5119 31.9076 59.0746 33.5247 58.316C40.7249 54.9089 48.158 52.3934 55.8639 50.9294C56.0636 50.8895 56.2565 50.8496 56.4561 50.8163C57.9334 50.5501 59.4639 50.8362 60.7549 51.6215L66.4154 55.0736L63.1623 61.4336C62.7894 62.1623 63.078 63.0551 63.8072 63.428C64.0229 63.5384 64.2533 63.5909 64.4805 63.5909C65.0196 63.5909 65.5389 63.2959 65.8014 62.7833L69.1266 56.2823C70.1832 56.5982 71.2846 56.7653 72.4004 56.7653H113.079C114.758 56.7653 116.409 56.3887 117.924 55.6804L121.557 62.7833C121.819 63.2961 122.339 63.5909 122.878 63.5909C123.104 63.5909 123.335 63.5384 123.551 63.428C124.28 63.0552 124.569 62.1623 124.196 61.4336L120.496 54.1997L124.718 51.6215C126.003 50.8362 127.54 50.5501 129.024 50.8163C136.929 52.2669 144.562 54.8223 151.948 58.3159C153.565 59.0745 154.763 60.5119 155.243 62.2354L156.4 66.481L161.424 69.3623C161.957 70.6466 162.496 71.951 163.028 73.2619C170.734 92.0077 178.713 112.563 181.854 130.185C182.611 134.423 183.084 138.491 183.209 142.325C183.378 137.397 182.872 132.005 181.854 126.303Z" fill="white"/>
</g>
<g opacity="0.3">
<path d="M110.835 52.9773C110.915 53.3367 110.962 53.5496 110.962 53.5496L118.242 65.5809L120.564 64.4697C124.85 55.9785 133.041 57.1297 133.041 57.1297L129.761 47.6736L129.534 47.1413C129.335 47.1014 129.142 47.0614 128.942 47.0281C127.465 46.7619 125.934 47.0481 124.643 47.8333L118.98 51.287C117.184 52.3916 115.114 52.9772 112.998 52.9772H110.835V52.9773Z" fill="#0F227A"/>
</g>
<g opacity="0.3">
<path d="M74.5631 52.9773C74.4832 53.3367 74.4366 53.5496 74.4366 53.5496L67.1566 65.5809L64.8342 64.4697C60.5487 55.9785 52.3569 57.1297 52.3569 57.1297L55.6376 47.6736L55.8639 47.1413C56.0635 47.1014 56.2565 47.0614 56.4561 47.0281C57.9334 46.7619 59.4639 47.0481 60.7549 47.8333L66.4179 51.287C68.2146 52.3916 70.2842 52.9772 72.4003 52.9772H74.5631V52.9773Z" fill="#0F227A"/>
</g>
<path d="M181.854 126.397C178.713 108.776 170.734 88.2197 163.028 69.474C162.496 68.163 161.957 66.8587 161.424 65.5744L156.4 62.6931L156.399 62.6895L136.189 57.5643C131.032 56.2564 125.571 57.8532 121.931 61.7338L113.709 70.4991C111.582 72.766 108.612 74.052 105.504 74.052H92.7373H79.9703C76.8621 74.052 73.8924 72.766 71.7658 70.4991L63.5436 61.7338C59.9034 57.8533 54.4425 56.2564 49.285 57.5643L29.0721 62.6934L24.0486 65.5744C23.5495 66.7789 23.0504 68.01 22.5447 69.2344C20.8012 73.48 19.0444 77.8121 17.3275 82.1841C11.5314 96.9572 6.24105 112.163 3.74565 125.698C3.70575 125.924 3.6591 126.157 3.6192 126.384C3.61252 126.397 3.61252 126.417 3.61252 126.43C3.08685 129.365 2.69422 132.213 2.47455 134.961C2.46127 135.094 2.44792 135.221 2.44125 135.347C1.37662 148.829 4.16482 159.796 13.6275 165.632C17.4539 168.001 22.325 167.741 25.9117 165.033C32.3533 160.142 39.8065 152.25 47.4592 143.752C47.6721 143.519 47.885 143.286 48.098 143.046C52.0309 138.288 56.9884 135.52 63.7361 136.299H121.737C128.491 135.52 133.442 138.288 137.382 143.046C145.254 151.81 152.94 160.009 159.568 165.033C163.148 167.741 168.026 168.001 171.846 165.632C183.325 158.545 184.982 143.918 181.854 126.397Z" fill="white"/>
<g opacity="0.3">
<path d="M171.845 165.627C168.027 168.001 163.149 167.738 159.57 165.032C152.938 160.008 145.254 151.806 137.385 143.041C133.443 138.287 128.488 135.52 121.74 136.3H63.7347C56.9865 135.519 52.0317 138.287 48.0971 143.041C47.8884 143.28 47.6719 143.52 47.4555 143.752C39.8029 152.247 32.3513 160.139 25.9123 165.032C22.3255 167.738 17.4558 168.001 13.6294 165.628C4.16801 159.792 1.37764 148.83 2.44429 135.342C2.44429 135.218 2.45973 135.094 2.47526 134.963C2.50623 134.553 2.54494 134.144 2.59121 133.726C3.62696 141.99 6.97414 148.629 13.6294 152.726C17.4558 155.099 22.3255 154.837 25.9123 152.131C32.3513 147.238 39.8029 139.346 47.4555 130.851C47.6719 130.611 47.8884 130.379 48.0971 130.14C52.0317 125.386 56.9865 122.618 63.7347 123.391H121.74C123.804 123.152 125.705 123.252 127.46 123.631C127.468 123.639 127.468 123.631 127.468 123.631C131.387 120.098 133.11 114.456 131.487 109.207C131.41 108.967 131.333 108.728 131.248 108.496C130.475 106.409 132.894 104.608 134.633 105.991C134.742 106.076 134.842 106.161 134.943 106.246C136.983 107.955 138.537 110.274 139.341 113.049C140.541 117.266 139.613 121.716 137.125 125.089C136.012 126.599 136.16 128.671 137.361 130.111C137.369 130.12 137.377 130.13 137.385 130.14C145.254 138.905 152.938 147.107 159.57 152.131C163.149 154.837 168.027 155.099 171.845 152.726C178.5 148.622 181.855 141.982 182.883 133.711C184.306 147.934 181.685 159.552 171.845 165.627Z" fill="#0F227A"/>
</g>
<path d="M166.152 169.489C163.363 169.489 160.583 168.586 158.226 166.8C151.372 161.608 143.363 153.03 135.728 144.534C135.708 144.512 135.688 144.489 135.669 144.466C131.788 139.775 127.443 137.881 121.991 138.505C121.907 138.515 121.823 138.52 121.738 138.52H63.7367C63.6521 138.52 63.5679 138.515 63.4841 138.505C58.0334 137.882 53.6868 139.775 49.8061 144.466C49.7867 144.489 49.7669 144.512 49.7468 144.534C42.1127 153.03 34.1037 161.607 27.2489 166.8C22.8925 170.101 17.087 170.386 12.4584 167.526C0.935558 160.406 -2.54602 146.153 1.81373 123.952C5.39971 105.694 13.7507 84.6807 21.9971 64.7226C22.1849 64.2678 22.5182 63.8881 22.9452 63.6433L27.172 61.2179L28.0912 57.8608C28.7368 55.5039 30.3705 53.5549 32.5733 52.5138C40.2999 48.8628 48.1988 46.2823 56.051 44.8437C58.074 44.4723 60.1562 44.8605 61.9151 45.9348L67.5764 49.3947C69.0284 50.2821 70.6954 50.751 72.3975 50.751H113.077C114.779 50.751 116.446 50.2821 117.898 49.3947L123.559 45.935C125.318 44.8605 127.399 44.4726 129.424 44.8437C137.276 46.2825 145.175 48.863 152.901 52.5138C155.104 53.5551 156.738 55.504 157.384 57.861L158.303 61.218L162.529 63.6432C162.956 63.888 163.29 64.2676 163.478 64.7225C171.724 84.6806 180.075 105.694 183.661 123.952C188.021 146.153 184.539 160.406 173.016 167.525C170.892 168.838 168.519 169.488 166.152 169.489ZM139.065 141.596C146.543 149.916 154.363 158.296 160.911 163.256C163.792 165.439 167.626 165.63 170.679 163.743C193.54 149.617 173.33 100.213 159.658 67.1219L155.294 64.6179C154.785 64.3257 154.412 63.8434 154.257 63.2769L153.095 59.0352C152.793 57.9317 152.03 57.0198 151.001 56.5338C143.625 53.0481 136.095 50.5864 128.623 49.2171C127.676 49.0434 126.701 49.2258 125.877 49.7289L120.216 53.1885C118.066 54.5027 115.597 55.1974 113.077 55.1974H72.3974C69.8771 55.1974 67.4082 54.5027 65.2578 53.1885L59.5969 49.7288C58.7733 49.2258 57.7991 49.0442 56.8521 49.2172C49.3796 50.5863 41.8503 53.048 34.4726 56.5339C33.4446 57.0197 32.6814 57.9315 32.3793 59.0353L31.2177 63.2772C31.0625 63.8437 30.6893 64.3258 30.1799 64.618L25.8161 67.122C12.1447 100.213 -8.06617 149.617 14.7953 163.743C17.8488 165.63 21.683 165.439 24.5636 163.256C31.1122 158.295 38.9319 149.916 46.4096 141.596C51.2351 135.782 56.9495 133.321 63.8599 134.074H121.614C128.526 133.32 134.239 135.782 139.065 141.596Z" fill="#0F227A"/>
<path d="M105.504 76.0282H79.9705C76.3307 76.0282 72.8151 74.5057 70.3249 71.8508L62.1027 63.0856C58.9551 59.7302 54.2292 58.3479 49.7709 59.4797L29.5594 64.6053C28.5014 64.8725 27.4265 64.2336 27.1585 63.1756C26.89 62.1178 27.5302 61.0427 28.5882 60.7743L48.7997 55.6487C54.6514 54.1643 60.8539 55.9779 64.9848 60.3818L73.207 69.147C74.9534 71.0084 77.4184 72.076 79.9705 72.076H105.504C108.056 72.076 110.521 71.0085 112.268 69.147L120.49 60.3818C124.62 55.9782 130.822 54.164 136.675 55.6487L156.887 60.7743C157.945 61.0427 158.585 62.1178 158.316 63.1756C158.049 64.2334 156.972 64.8722 155.915 64.6053L135.704 59.4797C131.245 58.3484 126.52 59.7303 123.372 63.0856L115.15 71.8508C112.66 74.5057 109.144 76.0282 105.504 76.0282Z" fill="#0F227A"/>
<path d="M63.5425 63.2161C63.3151 63.2161 63.0847 63.1637 62.8687 63.0531C62.14 62.6803 61.8514 61.7875 62.2242 61.0587L67.0747 51.5758C67.4479 50.8471 68.3414 50.5587 69.0691 50.9313C69.7978 51.3041 70.0864 52.1969 69.7136 52.9257L64.8631 62.4085C64.6009 62.9211 64.0813 63.2161 63.5425 63.2161Z" fill="#0F227A"/>
<path d="M121.939 63.216C121.401 63.216 120.881 62.9212 120.619 62.4085L115.768 52.9257C115.395 52.1969 115.684 51.3041 116.412 50.9313C117.142 50.559 118.034 50.8469 118.407 51.5758L123.258 61.0587C123.63 61.7874 123.342 62.6802 122.613 63.0531C122.397 63.1635 122.166 63.216 121.939 63.216Z" fill="#0F227A"/>
<path d="M69.2295 126.385C77.1417 126.385 83.5557 119.971 83.5557 112.058C83.5557 104.146 77.1417 97.7322 69.2295 97.7322C61.3174 97.7322 54.9033 104.146 54.9033 112.058C54.9033 119.971 61.3174 126.385 69.2295 126.385Z" fill="#D0D4D8"/>
<path d="M69.2294 126.572C61.2266 126.572 54.7157 120.061 54.7157 112.058C54.7157 104.055 61.2266 97.5446 69.2294 97.5446C77.2322 97.5446 83.7431 104.055 83.7431 112.058C83.7431 120.061 77.2322 126.572 69.2294 126.572ZM69.2294 97.9196C61.4331 97.9196 55.0907 104.262 55.0907 112.058C55.0907 119.854 61.4331 126.197 69.2294 126.197C77.0257 126.197 83.3681 119.854 83.3681 112.058C83.3681 104.262 77.0256 97.9196 69.2294 97.9196Z" fill="#0F227A"/>
<g opacity="0.3">
<path d="M80.8177 103.64C79.1579 102.963 77.335 102.588 75.4282 102.588C67.5142 102.588 61.102 109.005 61.102 116.914C61.102 120.061 62.1147 122.97 63.8388 125.332C58.5974 123.208 54.9022 118.065 54.9022 112.058C54.9022 104.149 61.3194 97.7316 69.2284 97.7316C73.9955 97.7315 78.2143 100.058 80.8177 103.64Z" fill="#102770"/>
<path d="M64.5137 125.858L63.7505 125.549C58.2328 123.313 54.6677 118.017 54.6677 112.058C54.6677 104.029 61.1995 97.4969 69.2283 97.4969C73.8707 97.4969 78.2744 99.7418 81.0075 103.502L81.4912 104.168L80.7292 103.857C79.045 103.17 77.2615 102.822 75.4282 102.822C67.6579 102.822 61.3361 109.144 61.3361 116.914C61.3361 119.918 62.267 122.781 64.0281 125.194L64.5137 125.858ZM69.2283 97.9661C61.458 97.9661 55.1365 104.288 55.1365 112.058C55.1365 117.551 58.2672 122.462 63.1792 124.786C61.6638 122.444 60.8673 119.739 60.8673 116.914C60.8673 108.885 67.3994 102.353 75.4282 102.353C77.0428 102.353 78.6202 102.615 80.1286 103.131C77.4644 99.8829 73.4485 97.9661 69.2283 97.9661Z" fill="#0F227A"/>
</g>
<path d="M69.2295 127.791C60.5543 127.791 53.4963 120.734 53.4963 112.058C53.4963 103.383 60.5543 96.3252 69.2295 96.3252C77.9046 96.3252 84.9626 103.383 84.9626 112.058C84.9626 120.734 77.9046 127.791 69.2295 127.791ZM69.2295 99.1391C62.106 99.1391 56.3103 104.935 56.3103 112.058C56.3103 119.182 62.1059 124.978 69.2295 124.978C76.353 124.978 82.1487 119.182 82.1487 112.058C82.1487 104.935 76.353 99.1391 69.2295 99.1391Z" fill="#0F227A"/>
<path d="M124.304 119.278C128.291 115.29 128.291 108.826 124.304 104.839C120.317 100.852 113.853 100.852 109.866 104.839C105.879 108.826 105.879 115.29 109.866 119.278C113.853 123.265 120.317 123.265 124.304 119.278Z" fill="#5E6C7A"/>
<path d="M117.087 122.502C111.329 122.502 106.644 117.817 106.644 112.058C106.644 106.3 111.329 101.614 117.087 101.614C122.846 101.614 127.531 106.3 127.531 112.058C127.531 117.817 122.846 122.502 117.087 122.502ZM117.087 102.084C111.587 102.084 107.112 106.558 107.112 112.058C107.112 117.559 111.587 122.033 117.087 122.033C122.587 122.033 127.063 117.559 127.063 112.058C127.063 106.558 122.587 102.084 117.087 102.084Z" fill="#0F227A"/>
<path d="M124.304 119.278C128.291 115.29 128.291 108.826 124.304 104.839C120.317 100.852 113.853 100.852 109.866 104.839C105.879 108.826 105.879 115.29 109.866 119.278C113.853 123.265 120.317 123.265 124.304 119.278Z" fill="#D0D4D8"/>
<path d="M117.087 122.455C111.355 122.455 106.691 117.791 106.691 112.058C106.691 106.326 111.355 101.661 117.087 101.661C122.82 101.661 127.484 106.326 127.484 112.058C127.484 117.791 122.82 122.455 117.087 122.455ZM117.087 102.036C111.561 102.036 107.066 106.532 107.066 112.058C107.066 117.584 111.561 122.08 117.087 122.08C122.613 122.08 127.109 117.584 127.109 112.058C127.109 106.532 122.613 102.036 117.087 102.036Z" fill="#0F227A"/>
<path d="M117.087 123.675C110.682 123.675 105.471 118.464 105.471 112.058C105.471 105.653 110.682 100.442 117.087 100.442C123.493 100.442 128.704 105.653 128.704 112.058C128.704 118.464 123.493 123.675 117.087 123.675ZM117.087 103.256C112.234 103.256 108.285 107.205 108.285 112.058C108.285 116.912 112.234 120.861 117.087 120.861C121.941 120.861 125.89 116.912 125.89 112.058C125.89 107.205 121.941 103.256 117.087 103.256Z" fill="#0F227A"/>
<path d="M117.087 116.916C119.77 116.916 121.945 114.741 121.945 112.058C121.945 109.375 119.77 107.201 117.087 107.201C114.405 107.201 112.23 109.375 112.23 112.058C112.23 114.741 114.405 116.916 117.087 116.916Z" fill="#0F227A"/>
<path d="M53.9928 90.4906C57.9798 86.5036 57.9798 80.0394 53.9928 76.0523C50.0058 72.0653 43.5415 72.0653 39.5545 76.0523C35.5675 80.0394 35.5675 86.5036 39.5545 90.4906C43.5415 94.4777 50.0058 94.4777 53.9928 90.4906Z" fill="#5E6C7A"/>
<path d="M46.7755 93.7157C41.0165 93.7157 36.3315 89.0306 36.3315 83.2718C36.3315 77.5129 41.0165 72.8276 46.7755 72.8276C52.5342 72.8276 57.2191 77.513 57.2191 83.2718C57.2191 89.0306 52.5342 93.7157 46.7755 93.7157ZM46.7755 73.2968C41.2754 73.2968 36.8003 77.7715 36.8003 83.2718C36.8003 88.7719 41.2754 93.2466 46.7755 93.2466C52.2756 93.2466 56.7504 88.7719 56.7504 83.2718C56.7504 77.7715 52.2756 73.2968 46.7755 73.2968Z" fill="#0F227A"/>
<g opacity="0.3">
<path d="M66.6709 90.3607C66.1651 96.9754 60.9013 102.392 54.3067 103.084C50.0745 103.523 46.1682 102.046 43.3534 99.4108C42.4284 97.9801 43.3268 96.9421 44.6976 96.9952C45.6026 97.135 46.5343 97.1816 47.4858 97.135C54.513 96.789 60.2625 91.0594 60.6352 84.0323C60.6486 83.7861 60.6552 83.5333 60.6552 83.287C60.6619 81.0578 63.5499 80.206 64.7011 82.1092C64.7743 82.229 64.8409 82.3421 64.9074 82.4552C66.2249 84.7642 66.8838 87.4793 66.6709 90.3607Z" fill="#0F227A"/>
</g>
<path d="M53.9928 90.4906C57.9798 86.5036 57.9798 80.0394 53.9928 76.0523C50.0058 72.0653 43.5415 72.0653 39.5545 76.0523C35.5675 80.0394 35.5675 86.5036 39.5545 90.4906C43.5415 94.4777 50.0058 94.4777 53.9928 90.4906Z" fill="#D0D4D8"/>
<path d="M46.7755 95.4776C40.0453 95.4776 34.5697 90.002 34.5697 83.2718C34.5697 76.5414 40.0453 71.0658 46.7755 71.0658C53.5057 71.0658 58.9809 76.5414 58.9809 83.2718C58.981 90.002 53.5058 95.4776 46.7755 95.4776ZM46.7755 75.0586C42.2466 75.0586 38.5621 78.7431 38.5621 83.2718C38.5621 87.8006 42.2466 91.4849 46.7755 91.4849C51.3041 91.4849 54.9885 87.8006 54.9885 83.2718C54.9885 78.7431 51.3041 75.0586 46.7755 75.0586Z" fill="#0F227A"/>
<path d="M46.7755 88.1294C49.4583 88.1294 51.6332 85.9546 51.6332 83.2717C51.6332 80.5888 49.4583 78.4139 46.7755 78.4139C44.0926 78.4139 41.9177 80.5888 41.9177 83.2717C41.9177 85.9546 44.0926 88.1294 46.7755 88.1294Z" fill="#0F227A"/>
<path d="M139.32 78.9152C142.441 78.9152 144.971 76.3853 144.971 73.2645C144.971 70.1437 142.441 67.6138 139.32 67.6138C136.199 67.6138 133.669 70.1437 133.669 73.2645C133.669 76.3853 136.199 78.9152 139.32 78.9152Z" fill="#E5C62C"/>
<path d="M79.1331 109.528V114.588C79.1331 115.216 78.6248 115.724 77.9977 115.724H73.205V120.517C73.205 121.144 72.6966 121.652 72.0696 121.652H67.0142C66.3871 121.652 65.8788 121.144 65.8788 120.517V115.724H61.0861C60.459 115.724 59.9507 115.215 59.9507 114.588V109.528C59.9507 108.901 60.459 108.393 61.0861 108.393H65.8788V103.6C65.8788 102.973 66.3872 102.465 67.0142 102.465H72.0696C72.6966 102.465 73.205 102.973 73.205 103.6V108.393H77.9977C78.6248 108.393 79.1331 108.901 79.1331 109.528Z" fill="#0F227A"/>
<path d="M150.931 90.527C154.052 90.527 156.582 87.9971 156.582 84.8763C156.582 81.7555 154.052 79.2256 150.931 79.2256C147.811 79.2256 145.281 81.7555 145.281 84.8763C145.281 87.9971 147.811 90.527 150.931 90.527Z" fill="#E52C5C"/>
<path d="M127.708 90.527C130.829 90.527 133.359 87.9971 133.359 84.8763C133.359 81.7555 130.829 79.2256 127.708 79.2256C124.587 79.2256 122.057 81.7555 122.057 84.8763C122.057 87.9971 124.587 90.527 127.708 90.527Z" fill="#5E7DEF"/>
<g opacity="0.3">
<path d="M148.356 77.2337C148.356 80.3558 145.822 82.8852 142.705 82.8852C140.24 82.8852 138.14 81.3044 137.37 79.1012C138.175 79.5408 139.094 79.7879 140.067 79.7879C143.189 79.7879 145.718 77.2586 145.718 74.1364C145.718 73.4843 145.605 72.8569 145.402 72.269C147.161 73.2224 148.356 75.0897 148.356 77.2337Z" fill="#0F227A"/>
<path d="M148.356 100.457C148.356 103.579 145.822 106.109 142.705 106.109C140.24 106.109 138.14 104.528 137.37 102.324C138.175 102.764 139.094 103.011 140.067 103.011C143.189 103.011 145.718 100.482 145.718 97.3595C145.718 96.7025 145.605 96.0752 145.402 95.4922C147.161 96.4457 148.356 98.3131 148.356 100.457Z" fill="#0F227A"/>
<path d="M159.965 88.8479C159.965 91.9651 157.436 94.4944 154.314 94.4944C151.849 94.4944 149.749 92.9136 148.979 90.7153C149.779 91.1549 150.703 91.4019 151.681 91.4019C154.803 91.4019 157.332 88.8726 157.332 85.7504C157.332 85.0934 157.219 84.466 157.016 83.8831C158.775 84.8415 159.965 86.7039 159.965 88.8479Z" fill="#0F227A"/>
<path d="M136.742 88.8479C136.742 91.9651 134.213 94.4944 131.091 94.4944C128.626 94.4944 126.526 92.9136 125.755 90.7153C126.556 91.1549 127.479 91.4019 128.458 91.4019C131.58 91.4019 134.109 88.8726 134.109 85.7504C134.109 85.0934 133.995 84.466 133.793 83.8831C135.552 84.8415 136.742 86.7039 136.742 88.8479Z" fill="#0F227A"/>
</g>
<path d="M139.32 102.139C142.441 102.139 144.971 99.6088 144.971 96.488C144.971 93.3672 142.441 90.8373 139.32 90.8373C136.199 90.8373 133.669 93.3672 133.669 96.488C133.669 99.6088 136.199 102.139 139.32 102.139Z" fill="#55BC5C"/>
<g opacity="0.55">
<path d="M143.407 69.3671C142.928 69.2279 142.425 69.1584 141.907 69.1584C138.784 69.1584 136.257 71.6861 136.257 74.809C136.257 76.324 136.852 77.6999 137.818 78.7048C135.43 78.0556 133.667 75.868 133.667 73.263C133.667 70.1401 136.203 67.6124 139.318 67.6124C140.926 67.6124 142.379 68.2849 143.407 69.3671Z" fill="white"/>
</g>
<g opacity="0.55">
<path d="M155.017 80.9774C154.538 80.8382 154.035 80.7686 153.518 80.7686C150.395 80.7686 147.867 83.3041 147.867 86.4192C147.867 87.9343 148.462 89.3102 149.429 90.3151C147.04 89.6657 145.277 87.4782 145.277 84.8732C145.277 81.7581 147.813 79.2227 150.928 79.2227C152.536 79.2227 153.989 79.8952 155.017 80.9774Z" fill="white"/>
</g>
<g opacity="0.55">
<path d="M131.796 80.9774C131.317 80.8382 130.815 80.7686 130.297 80.7686C127.174 80.7686 124.646 83.3041 124.646 86.4192C124.646 87.9343 125.242 89.3102 126.208 90.3151C123.811 89.6657 122.057 87.4782 122.057 84.8732C122.057 81.7581 124.584 79.2227 127.707 79.2227C129.315 79.2227 130.768 79.8952 131.796 80.9774Z" fill="white"/>
</g>
<g opacity="0.55">
<path d="M143.407 92.5954C142.928 92.4562 142.425 92.3867 141.907 92.3867C138.784 92.3867 136.257 94.9144 136.257 98.0373C136.257 99.5523 136.852 100.92 137.818 101.933C135.43 101.284 133.667 99.0885 133.667 96.4913C133.667 93.3684 136.203 90.8407 139.318 90.8407C140.926 90.8407 142.379 91.5132 143.407 92.5954Z" fill="white"/>
</g>
<path d="M139.32 103.803C135.286 103.803 132.005 100.521 132.005 96.488C132.005 92.4547 135.286 89.1735 139.32 89.1735C143.353 89.1735 146.634 92.4547 146.634 96.488C146.634 100.521 143.353 103.803 139.32 103.803ZM139.32 92.5008C137.121 92.5008 135.333 94.2894 135.333 96.488C135.333 98.6865 137.121 100.475 139.32 100.475C141.518 100.475 143.307 98.6865 143.307 96.488C143.307 94.2894 141.518 92.5008 139.32 92.5008Z" fill="#0F227A"/>
<path d="M139.32 80.5791C135.286 80.5791 132.005 77.2979 132.005 73.2646C132.005 69.2313 135.286 65.9501 139.32 65.9501C143.353 65.9501 146.634 69.2313 146.634 73.2646C146.634 77.2979 143.353 80.5791 139.32 80.5791ZM139.32 69.2774C137.121 69.2774 135.333 71.066 135.333 73.2645C135.333 75.4631 137.121 77.2517 139.32 77.2517C141.518 77.2517 143.307 75.4631 143.307 73.2645C143.307 71.066 141.518 69.2774 139.32 69.2774Z" fill="#0F227A"/>
<path d="M150.931 92.1907C146.898 92.1907 143.617 88.9095 143.617 84.8762C143.617 80.8431 146.898 77.5619 150.931 77.5619C154.965 77.5619 158.246 80.8431 158.246 84.8762C158.246 88.9095 154.965 92.1907 150.931 92.1907ZM150.931 80.8893C148.733 80.8893 146.945 82.6779 146.945 84.8762C146.945 87.0747 148.733 88.8633 150.931 88.8633C153.13 88.8633 154.918 87.0747 154.918 84.8762C154.918 82.6778 153.13 80.8893 150.931 80.8893Z" fill="#0F227A"/>
<path d="M127.708 92.1907C123.675 92.1907 120.394 88.9095 120.394 84.8762C120.394 80.8431 123.675 77.5619 127.708 77.5619C131.741 77.5619 135.023 80.8431 135.023 84.8762C135.023 88.9095 131.741 92.1907 127.708 92.1907ZM127.708 80.8893C125.51 80.8893 123.721 82.6779 123.721 84.8762C123.721 87.0747 125.509 88.8633 127.708 88.8633C129.907 88.8633 131.695 87.0747 131.695 84.8762C131.695 82.6778 129.907 80.8893 127.708 80.8893Z" fill="#0F227A"/>
<path d="M87.6219 89.4778C88.0953 87.4729 86.8538 85.4638 84.8489 84.9904C82.844 84.517 80.835 85.7585 80.3616 87.7634C79.8882 89.7683 81.1297 91.7773 83.1346 92.2507C85.1394 92.7241 87.1485 91.4826 87.6219 89.4778Z" fill="#0F227A"/>
<path d="M104.117 91.244C105.574 89.7873 105.574 87.4256 104.117 85.9689C102.661 84.5122 100.299 84.5122 98.8422 85.9689C97.3855 87.4256 97.3855 89.7873 98.8422 91.244C100.299 92.7007 102.661 92.7007 104.117 91.244Z" fill="#0F227A"/>
<g opacity="0.3">
<path d="M90.11 90.8351C90.11 92.8952 88.4403 94.5698 86.3803 94.5698C84.7946 94.5698 83.436 93.5768 82.9025 92.1739C83.2483 92.2826 83.6138 92.3369 83.9942 92.3369C86.0543 92.3369 87.724 90.6672 87.724 88.6072C87.724 88.1329 87.635 87.6834 87.4721 87.2684C88.9985 87.7328 90.11 89.1555 90.11 90.8351Z" fill="#0F227A"/>
<path d="M107.598 90.8351C107.598 92.8952 105.928 94.5698 103.868 94.5698C102.282 94.5698 100.924 93.5768 100.39 92.1739C100.736 92.2826 101.102 92.3369 101.482 92.3369C103.542 92.3369 105.212 90.6672 105.212 88.6072C105.212 88.1329 105.123 87.6834 104.96 87.2684C106.486 87.7328 107.598 89.1555 107.598 90.8351Z" fill="#0F227A"/>
</g>
</svg>
