<svg width="500" height="500" viewBox="0 0 500 500" fill="none" xmlns="http://www.w3.org/2000/svg">
<path d="M250 427.56C357.082 427.56 443.89 422.492 443.89 416.24C443.89 409.988 357.082 404.92 250 404.92C142.918 404.92 56.1101 409.988 56.1101 416.24C56.1101 422.492 142.918 427.56 250 427.56Z" fill="#F5F5F5"/>
<path d="M157.61 247.44L156.69 247.05C157.413 245.462 157.902 243.778 158.14 242.05L159.14 242.16C158.889 243.985 158.374 245.764 157.61 247.44ZM157.22 236C156.29 233.922 154.843 232.117 153.017 230.757C151.191 229.396 149.047 228.527 146.79 228.23L146.95 227.23C149.371 227.552 151.67 228.488 153.627 229.95C155.584 231.412 157.134 233.35 158.13 235.58L157.22 236Z" fill="#FF5400"/>
<path d="M152 257.5L142.14 262L141.7 261C141.026 259.641 140.589 258.176 140.41 256.67C140.315 255.443 140.447 254.209 140.8 253.03C141.654 250.682 142.656 248.391 143.8 246.17C144.68 244.39 144.903 243.027 144.47 242.08C144.309 241.661 144.061 241.281 143.742 240.966C143.423 240.65 143.041 240.406 142.62 240.25C141.638 240 140.598 240.133 139.71 240.62C139.139 240.863 138.624 241.22 138.196 241.668C137.768 242.117 137.436 242.648 137.22 243.23C136.787 244.397 136.92 246.043 137.62 248.17L127 251.49C125.672 248.03 125.672 244.2 127 240.74C128.333 237.407 131.407 234.65 136.22 232.47C139.98 230.75 143.38 230.16 146.41 230.67C148.267 230.894 150.033 231.597 151.535 232.711C153.038 233.824 154.225 235.309 154.98 237.02C155.655 238.524 155.904 240.184 155.7 241.82C155.217 244.375 154.304 246.83 153 249.08C152.123 250.571 151.52 252.207 151.22 253.91C151.178 255.153 151.446 256.387 152 257.5ZM143 264.74L153.54 260L157.77 269.29L147.23 274L143 264.74Z" fill="#FF5400"/>
<path d="M127.64 279.73L122.64 286.53L122 286C121.025 285.324 120.17 284.489 119.47 283.53C118.939 282.731 118.562 281.838 118.36 280.9C118.037 278.979 117.847 277.037 117.79 275.09C117.71 273.54 117.34 272.53 116.69 272.09C116.417 271.858 116.096 271.689 115.751 271.594C115.405 271.499 115.043 271.481 114.69 271.54C113.925 271.74 113.266 272.227 112.85 272.9C112.552 273.281 112.336 273.719 112.213 274.187C112.091 274.654 112.066 275.142 112.14 275.62C112.487 276.899 113.242 278.029 114.29 278.84L108.29 285.15C106.068 283.297 104.605 280.692 104.18 277.83C103.813 275.07 104.86 272.02 107.32 268.68C108.846 266.391 111.028 264.617 113.58 263.59C114.93 263.032 116.402 262.837 117.851 263.023C119.3 263.209 120.675 263.77 121.84 264.65C122.875 265.417 123.677 266.456 124.16 267.65C124.802 269.584 125.113 271.612 125.08 273.65C125.046 275.01 125.256 276.365 125.7 277.65C126.163 278.495 126.83 279.21 127.64 279.73ZM124.27 288.09L129.63 280.81L136.05 285.54L130.69 292.82L124.27 288.09Z" fill="#FF5400"/>
<path d="M234.09 412.64C233.265 412.641 232.455 412.415 231.749 411.986C231.044 411.557 230.47 410.943 230.09 410.21C226.09 402.45 221.02 393.34 211.94 383.48C211.417 382.914 211.05 382.222 210.875 381.472C210.699 380.722 210.722 379.939 210.94 379.2C214.31 367.49 219.61 351.48 219.66 351.32C219.829 350.741 220.114 350.203 220.495 349.737C220.877 349.27 221.349 348.886 221.883 348.606C222.417 348.326 223.002 348.156 223.602 348.107C224.203 348.057 224.808 348.13 225.38 348.319C225.952 348.509 226.48 348.811 226.933 349.209C227.386 349.607 227.754 350.092 228.015 350.635C228.277 351.179 228.426 351.769 228.454 352.371C228.482 352.973 228.389 353.575 228.18 354.14C228.13 354.29 223.56 368.08 220.25 379.29C227.306 387.428 233.295 396.435 238.07 406.09C238.421 406.776 238.59 407.54 238.561 408.309C238.532 409.079 238.306 409.828 237.905 410.485C237.503 411.143 236.94 411.686 236.268 412.063C235.597 412.44 234.84 412.639 234.07 412.64H234.09Z" fill="#FF5400"/>
<path d="M241.56 416.24H206.77L225.21 405.78L240.66 406.38L241.56 416.24Z" fill="#202020"/>
<path d="M238.239 374.093C254.074 369.142 263.584 354.489 259.481 341.364C255.378 328.238 239.215 321.611 223.38 326.561C207.545 331.511 198.034 346.164 202.138 359.29C206.241 372.415 222.404 379.043 238.239 374.093Z" fill="#202020"/>
<path d="M151.65 334C150.615 333.996 149.612 333.634 148.813 332.976C148.014 332.317 147.467 331.403 147.264 330.388C147.062 329.372 147.217 328.318 147.703 327.404C148.188 326.489 148.975 325.771 149.93 325.37C150.707 325.045 151.39 324.529 151.914 323.87C152.438 323.211 152.788 322.43 152.93 321.6C153.02 320.624 153.427 319.703 154.09 318.981C154.753 318.258 155.635 317.773 156.6 317.6C157.714 317.373 158.815 317.089 159.9 316.75C165.98 314.98 173.51 312.75 197.21 319.41C220.59 306.34 220.86 281.82 220.86 280.76C220.86 279.572 221.33 278.432 222.167 277.589C223.005 276.746 224.142 276.268 225.33 276.26C226.514 276.26 227.65 276.728 228.491 277.561C229.332 278.394 229.809 279.526 229.82 280.71C229.82 282.02 229.68 312.8 199.82 328.21C198.802 328.738 197.62 328.852 196.52 328.53C173.92 322.01 167.52 323.87 162.45 325.36L161.07 325.76C160.403 327.527 159.381 329.139 158.067 330.496C156.753 331.853 155.175 332.926 153.43 333.65C152.866 333.886 152.261 334.005 151.65 334Z" fill="#202020"/>
<path d="M204.08 301.89C195.57 268.07 172.9 180.83 245.55 175.5C310.73 170.71 328.61 257.5 332.96 287.5C335.138 302.68 336.32 317.986 336.5 333.32C336.583 341.077 333.955 348.619 329.069 354.644C324.183 360.669 317.347 364.799 309.74 366.32C274.23 373.54 240.63 374.56 217.99 365.63C215.016 364.43 212.511 362.3 210.847 359.559C209.184 356.818 208.451 353.612 208.76 350.42C209.63 340.74 209.65 324 204.08 301.89Z" fill="#FF5400"/>
<path opacity="0.1" d="M333 287.52C328.9 259.2 312.78 180.52 256.34 175.52C253.12 175.194 249.876 175.828 247.017 177.342C244.157 178.856 241.809 181.184 240.27 184.03C237.75 188.91 237.83 194.82 241.6 200.67C254 220 283.67 286.67 279.19 323C277.19 339.53 266.78 352.73 275.8 371.31C287.202 370.312 298.535 368.642 309.74 366.31C317.347 364.789 324.183 360.659 329.069 354.634C333.955 348.609 336.583 341.067 336.5 333.31C336.332 317.987 335.163 302.691 333 287.52Z" fill="black"/>
<path d="M323.24 333.79C323.122 333.79 323.009 333.744 322.925 333.662C322.841 333.58 322.793 333.468 322.79 333.35C322.62 318.036 321.441 302.749 319.26 287.59C308.46 212.93 279.39 175.18 235.16 178.44C235.101 178.444 235.042 178.436 234.985 178.418C234.929 178.399 234.877 178.369 234.833 178.33C234.788 178.291 234.752 178.243 234.725 178.19C234.699 178.137 234.684 178.079 234.68 178.02C234.674 177.901 234.715 177.785 234.793 177.695C234.872 177.606 234.982 177.55 235.1 177.54C279.85 174.24 309.27 212.26 320.1 287.46C322.279 302.66 323.462 317.986 323.64 333.34C323.64 333.459 323.593 333.574 323.508 333.658C323.424 333.743 323.309 333.79 323.19 333.79H323.24Z" fill="#202020"/>
<path d="M322.561 376.475C338.396 371.525 347.906 356.871 343.803 343.746C339.7 330.62 323.537 323.993 307.702 328.943C291.867 333.893 282.357 348.547 286.46 361.672C290.563 374.798 306.726 381.425 322.561 376.475Z" fill="#202020"/>
<path d="M325.3 412.64C324.474 412.642 323.664 412.416 322.958 411.987C322.253 411.559 321.679 410.944 321.3 410.21C317.3 402.45 312.23 393.34 303.14 383.48C302.621 382.912 302.257 382.22 302.082 381.47C301.907 380.721 301.927 379.939 302.14 379.2C305.52 367.49 310.81 351.48 310.87 351.32C311.055 350.761 311.349 350.244 311.733 349.799C312.118 349.354 312.587 348.988 313.113 348.724C313.639 348.46 314.212 348.302 314.799 348.259C315.386 348.217 315.976 348.29 316.535 348.475C317.094 348.66 317.611 348.954 318.056 349.338C318.501 349.723 318.867 350.192 319.131 350.718C319.395 351.244 319.553 351.817 319.596 352.404C319.638 352.991 319.565 353.581 319.38 354.14C319.33 354.29 314.77 368.08 311.46 379.29C318.517 387.426 324.502 396.433 329.27 406.09C329.621 406.776 329.79 407.54 329.761 408.309C329.732 409.079 329.506 409.828 329.105 410.485C328.703 411.143 328.14 411.686 327.468 412.063C326.797 412.44 326.04 412.639 325.27 412.64H325.3Z" fill="#FF5400"/>
<path d="M315.88 275.91C314.877 275.911 313.903 275.575 313.112 274.958C312.322 274.34 311.761 273.475 311.52 272.502C311.278 271.528 311.369 270.502 311.779 269.586C312.189 268.671 312.893 267.919 313.78 267.45C314.64 266.99 334.17 256.32 339.65 230.68C326.65 225.24 303.23 212.95 298.11 206.77C297.606 206.172 297.262 205.457 297.11 204.69C296.519 200.997 296.862 197.215 298.11 193.69L295.75 189.13C295.204 188.069 295.101 186.835 295.465 185.698C295.829 184.562 296.629 183.616 297.69 183.07C298.751 182.524 299.985 182.421 301.122 182.785C302.258 183.149 303.204 183.949 303.75 185.01L307.14 191.57C307.505 192.257 307.684 193.027 307.659 193.804C307.635 194.581 307.407 195.338 307 196C306.085 197.828 305.697 199.874 305.88 201.91C311.65 207.12 334.88 219.45 346.31 223.68C347.279 224.039 348.094 224.722 348.617 225.613C349.14 226.504 349.339 227.549 349.18 228.57C344.11 261.34 319.04 274.84 317.98 275.4C317.332 275.739 316.611 275.914 315.88 275.91Z" fill="#202020"/>
<path d="M301.57 206.15C301.167 206.148 300.771 206.038 300.425 205.83C300.079 205.623 299.794 205.327 299.602 204.972C299.41 204.617 299.317 204.217 299.332 203.814C299.348 203.411 299.471 203.019 299.69 202.68C299.85 202.44 303.55 196.85 309.19 195.34C309.474 195.264 309.771 195.244 310.063 195.283C310.354 195.321 310.636 195.417 310.891 195.564C311.146 195.711 311.369 195.907 311.548 196.141C311.727 196.374 311.859 196.641 311.935 196.925C312.011 197.209 312.031 197.506 311.992 197.798C311.954 198.089 311.858 198.371 311.711 198.626C311.564 198.881 311.368 199.104 311.134 199.283C310.901 199.462 310.634 199.594 310.35 199.67C306.42 200.73 303.47 205.09 303.45 205.13C303.247 205.443 302.968 205.701 302.64 205.879C302.311 206.057 301.944 206.15 301.57 206.15Z" fill="#202020"/>
<path d="M332.77 416.24H297.98L316.42 405.78L331.87 406.38L332.77 416.24Z" fill="#202020"/>
<path d="M259.917 282.253C273.077 281.088 282.894 270.542 281.845 258.698C280.797 246.853 269.279 238.196 256.12 239.361C242.96 240.526 233.143 251.073 234.192 262.917C235.241 274.761 246.758 283.419 259.917 282.253Z" fill="white"/>
<path d="M255.448 274.446C258.938 273.452 260.3 267.497 258.49 261.144C256.68 254.791 252.384 250.448 248.895 251.442C245.405 252.436 244.043 258.391 245.853 264.744C247.662 271.097 251.958 275.44 255.448 274.446Z" fill="#202020"/>
<path d="M230.8 264.86C245.9 262.92 275.8 254.39 280.73 250.95C276.85 239.59 258.73 229.87 242.61 235.35C228 240.28 230.8 264.86 230.8 264.86Z" fill="#202020"/>
<path d="M233.73 272.16C252.48 268.6 276.85 262.62 283.82 258.79C283.39 271.01 279.82 283.4 260.7 287.59C245.06 291 233.73 272.16 233.73 272.16Z" fill="#202020"/>
<path d="M218.285 283.906C225.065 279.421 225.959 268.828 220.282 260.247C214.604 251.666 204.505 248.346 197.725 252.832C190.946 257.318 190.052 267.911 195.729 276.492C201.407 285.073 211.505 288.392 218.285 283.906Z" fill="white"/>
<path d="M208.34 268.68C209.47 274.04 208.49 278.51 206.14 278.68C203.79 278.85 200.97 274.62 199.83 269.26C198.69 263.9 199.68 259.44 202.02 259.26C204.36 259.08 207.2 263.32 208.34 268.68Z" fill="#202020"/>
<path d="M189.75 266.63C199.88 267.82 220 266.49 223.34 264.63C220.87 255 208.89 244 198 245.4C188.18 246.66 189.75 266.63 189.75 266.63Z" fill="#202020"/>
<path d="M191.63 272.94C204.22 273.51 220.63 273.19 225.31 271.42C224.88 281.03 222.36 290.19 209.5 290.04C199 289.92 191.63 272.94 191.63 272.94Z" fill="#202020"/>
<path d="M264.09 229.3C252.647 229.363 241.456 225.945 232 219.5C231.052 218.783 230.428 217.718 230.264 216.54C230.101 215.362 230.413 214.168 231.13 213.22C231.847 212.272 232.912 211.648 234.09 211.484C235.268 211.321 236.462 211.633 237.41 212.35C247.993 219.252 260.833 221.799 273.25 219.46C273.828 219.35 274.423 219.356 274.999 219.476C275.576 219.596 276.123 219.828 276.609 220.16C277.096 220.491 277.512 220.915 277.835 221.408C278.158 221.9 278.38 222.452 278.49 223.03C278.6 223.608 278.594 224.203 278.474 224.779C278.354 225.356 278.122 225.903 277.79 226.389C277.459 226.876 277.035 227.292 276.542 227.615C276.05 227.938 275.498 228.16 274.92 228.27C271.35 228.949 267.724 229.294 264.09 229.3Z" fill="#202020"/>
<path d="M183.88 221.57C183.162 221.566 182.455 221.391 181.819 221.059C181.183 220.726 180.635 220.246 180.222 219.659C179.809 219.072 179.542 218.394 179.445 217.683C179.347 216.971 179.421 216.247 179.66 215.57C182.03 208.95 185.98 204.66 191.38 202.8C201.16 199.43 211.7 205.98 212.15 206.26C213.132 206.905 213.822 207.91 214.072 209.059C214.321 210.207 214.111 211.408 213.485 212.403C212.859 213.398 211.868 214.108 210.725 214.38C209.582 214.653 208.377 214.466 207.37 213.86C205.37 212.59 199 209.65 194.27 211.29C191.55 212.24 189.53 214.63 188.1 218.61C187.786 219.477 187.212 220.226 186.457 220.756C185.702 221.285 184.802 221.57 183.88 221.57Z" fill="#202020"/>
<path d="M219.23 297.25C219.104 297.25 218.979 297.229 218.86 297.19C218.521 297.094 218.233 296.868 218.06 296.56C217.888 296.253 217.845 295.889 217.94 295.55C218.337 294.468 218.945 293.476 219.728 292.63C220.51 291.783 221.452 291.101 222.5 290.62C227.64 287.97 235.5 288.52 245.81 292.25C245.977 292.31 246.13 292.403 246.261 292.523C246.391 292.643 246.497 292.787 246.571 292.948C246.646 293.109 246.687 293.283 246.694 293.46C246.701 293.637 246.672 293.814 246.61 293.98C246.551 294.146 246.459 294.299 246.34 294.43C246.221 294.56 246.078 294.666 245.918 294.741C245.758 294.815 245.584 294.857 245.408 294.864C245.231 294.87 245.055 294.842 244.89 294.78C233.06 290.5 226.89 291.42 223.89 292.96C222.392 293.596 221.201 294.79 220.57 296.29C220.484 296.576 220.306 296.825 220.064 296.998C219.821 297.172 219.528 297.26 219.23 297.25Z" fill="#202020"/>
<path d="M176.88 292.32C161.233 293.71 146.015 298.179 132.1 305.47C139.82 304.01 167.45 338.2 174.55 364.56C187.66 359.71 202.94 356.4 219.23 353.81C209.36 326.64 191.31 295.85 176.88 292.32Z" fill="#FF5400"/>
<path opacity="0.6" d="M176.88 292.32C161.233 293.71 146.015 298.179 132.1 305.47C139.82 304.01 167.45 338.2 174.55 364.56C187.66 359.71 202.94 356.4 219.23 353.81C209.36 326.64 191.31 295.85 176.88 292.32Z" fill="white"/>
<path d="M176.88 292.32C159.8 290.39 132.07 304.69 132.07 304.69C127.16 307.82 128.49 313.69 131.17 316.18C133.74 312.49 162.4 302.89 173.17 301.6C167.82 296.64 172.8 293 176.88 292.32Z" fill="#FF5400"/>
<path opacity="0.2" d="M176.88 292.32C159.8 290.39 132.07 304.69 132.07 304.69C127.16 307.82 128.49 313.69 131.17 316.18C133.74 312.49 162.4 302.89 173.17 301.6C167.82 296.64 172.8 293 176.88 292.32Z" fill="white"/>
<path d="M151.66 334C150.915 334.003 150.182 333.822 149.524 333.473C148.866 333.124 148.305 332.618 147.89 332C144.64 327 146.67 319.41 147.11 317.93C147.485 316.832 148.27 315.922 149.301 315.39C150.332 314.859 151.528 314.746 152.64 315.077C153.752 315.408 154.693 316.157 155.265 317.166C155.837 318.175 155.997 319.366 155.71 320.49C154.98 323 154.83 326.21 155.41 327.09C156.059 328.087 156.286 329.302 156.04 330.466C155.795 331.631 155.097 332.65 154.1 333.3C153.374 333.769 152.525 334.013 151.66 334Z" fill="#202020"/>
<path d="M136.33 137.94H121.19V131.11L136.33 113.11H143.57V131.5H147.32V137.94H143.57V143.53H136.33V137.94ZM136.33 131.5V122.09L128.33 131.5H136.33Z" fill="#FF5400"/>
<path d="M149.91 128.46C149.91 122.78 150.933 118.803 152.98 116.53C155.027 114.257 158.143 113.12 162.33 113.12C164.028 113.063 165.723 113.317 167.33 113.87C168.503 114.292 169.579 114.949 170.49 115.8C171.256 116.535 171.907 117.381 172.42 118.31C172.922 119.283 173.301 120.314 173.55 121.38C174.115 123.67 174.393 126.021 174.38 128.38C174.38 133.8 173.463 137.77 171.63 140.29C169.797 142.81 166.623 144.047 162.11 144C160.01 144.087 157.92 143.676 156.01 142.8C154.446 141.984 153.127 140.765 152.19 139.27C151.359 137.878 150.79 136.347 150.51 134.75C150.096 132.679 149.895 130.572 149.91 128.46ZM158.15 128.46C158.15 132.273 158.483 134.873 159.15 136.26C159.369 136.864 159.766 137.388 160.29 137.761C160.813 138.134 161.437 138.34 162.08 138.35C162.486 138.358 162.89 138.283 163.266 138.13C163.643 137.977 163.984 137.749 164.27 137.46C164.986 136.679 165.459 135.706 165.63 134.66C165.986 132.681 166.133 130.67 166.07 128.66C166.07 124.66 165.74 122.02 165.07 120.66C164.827 120.065 164.411 119.557 163.876 119.201C163.342 118.844 162.713 118.656 162.07 118.66C161.412 118.642 160.766 118.836 160.226 119.212C159.686 119.588 159.281 120.127 159.07 120.75C158.463 122.13 158.157 124.707 158.15 128.48V128.46Z" fill="#FF5400"/>
<path d="M177.77 128.46C177.77 122.78 178.793 118.803 180.84 116.53C182.887 114.257 186.003 113.12 190.19 113.12C191.888 113.063 193.583 113.317 195.19 113.87C196.363 114.292 197.439 114.949 198.35 115.8C199.119 116.532 199.77 117.379 200.28 118.31C200.782 119.283 201.161 120.314 201.41 121.38C201.978 123.67 202.26 126.021 202.25 128.38C202.25 133.8 201.33 137.77 199.49 140.29C197.65 142.81 194.487 144.047 190 144C187.9 144.087 185.81 143.676 183.9 142.8C182.336 141.986 181.021 140.767 180.09 139.27C179.251 137.881 178.678 136.348 178.4 134.75C177.976 132.68 177.765 130.573 177.77 128.46ZM186.01 128.46C186.01 132.273 186.343 134.873 187.01 136.26C187.229 136.864 187.626 137.388 188.15 137.761C188.673 138.134 189.297 138.34 189.94 138.35C190.346 138.358 190.75 138.283 191.126 138.13C191.503 137.977 191.844 137.749 192.13 137.46C192.846 136.678 193.322 135.706 193.5 134.66C193.85 132.68 193.998 130.67 193.94 128.66C193.94 124.66 193.607 121.993 192.94 120.66C192.694 120.067 192.278 119.56 191.744 119.204C191.21 118.848 190.582 118.659 189.94 118.66C189.283 118.644 188.637 118.838 188.098 119.214C187.558 119.59 187.153 120.128 186.94 120.75C186.313 122.13 186 124.707 186 128.48L186.01 128.46Z" fill="#FF5400"/>
<path d="M220.89 113.63H245.65V120H230.15V124.76H244.53V130.86H230.15V136.75H246.1V143.52H220.89V113.63Z" fill="white"/>
<path d="M251.2 143.53V113.63H266.6C268.808 113.552 271.015 113.801 273.15 114.37C274.639 114.838 275.925 115.797 276.8 117.09C277.462 118.04 277.921 119.115 278.148 120.25C278.376 121.385 278.368 122.554 278.124 123.686C277.88 124.817 277.406 125.886 276.731 126.826C276.056 127.766 275.194 128.557 274.2 129.15C273.187 129.711 272.095 130.112 270.96 130.34C271.811 130.584 272.62 130.955 273.36 131.44C273.915 131.902 274.411 132.429 274.84 133.01C275.334 133.585 275.77 134.208 276.14 134.87L280.61 143.53H270.17L265.23 134.39C264.841 133.515 264.272 132.731 263.56 132.09C262.896 131.631 262.107 131.39 261.3 131.4H260.48V143.53H251.2ZM260.48 125.75H264.38C265.204 125.685 266.02 125.548 266.82 125.34C267.419 125.224 267.954 124.889 268.32 124.4C268.769 123.81 268.983 123.075 268.922 122.337C268.862 121.598 268.529 120.908 267.99 120.4C266.952 119.78 265.743 119.51 264.54 119.63H260.48V125.75Z" fill="white"/>
<path d="M283.69 143.53V113.63H299.09C301.298 113.551 303.505 113.801 305.64 114.37C307.129 114.838 308.415 115.797 309.29 117.09C309.949 118.04 310.406 119.115 310.633 120.249C310.86 121.383 310.852 122.551 310.609 123.681C310.366 124.812 309.894 125.881 309.222 126.821C308.549 127.762 307.691 128.554 306.7 129.15C305.685 129.712 304.588 130.113 303.45 130.34C305.045 130.684 306.439 131.643 307.33 133.01C307.824 133.585 308.26 134.208 308.63 134.87L313.1 143.53H302.66L297.72 134.39C297.331 133.515 296.762 132.731 296.05 132.09C295.386 131.631 294.597 131.39 293.79 131.4H293V143.53H283.69ZM293 125.75H296.9C297.724 125.685 298.54 125.548 299.34 125.34C299.941 125.228 300.477 124.892 300.84 124.4C301.289 123.81 301.503 123.075 301.442 122.337C301.381 121.598 301.049 120.908 300.51 120.4C299.473 119.778 298.263 119.507 297.06 119.63H293V125.75Z" fill="white"/>
<path d="M314.18 128.6C314.18 123.72 315.54 119.92 318.26 117.2C320.98 114.48 324.767 113.12 329.62 113.12C334.6 113.12 338.437 114.453 341.13 117.12C343.823 119.787 345.157 123.53 345.13 128.35C345.266 131.331 344.673 134.301 343.4 137C342.257 139.211 340.481 141.031 338.3 142.23C335.729 143.518 332.872 144.127 330 144C327.125 144.098 324.264 143.548 321.63 142.39C319.366 141.268 317.491 139.491 316.25 137.29C314.795 134.631 314.08 131.63 314.18 128.6ZM323.42 128.6C323.42 131.62 323.983 133.79 325.11 135.11C325.703 135.73 326.415 136.224 327.204 136.561C327.993 136.898 328.842 137.072 329.7 137.072C330.558 137.072 331.407 136.898 332.196 136.561C332.985 136.224 333.697 135.73 334.29 135.11C335.377 133.817 335.923 131.483 335.93 128.11C335.93 125.303 335.36 123.247 334.22 121.94C333.643 121.294 332.928 120.784 332.129 120.448C331.33 120.113 330.466 119.96 329.6 120C328.75 119.971 327.905 120.136 327.129 120.482C326.353 120.829 325.665 121.348 325.12 122C324 123.41 323.42 125.6 323.42 128.64V128.6Z" fill="white"/>
<path d="M350.27 143.53V113.63H365.66C367.868 113.551 370.075 113.801 372.21 114.37C373.7 114.836 374.988 115.795 375.86 117.09C376.819 118.518 377.306 120.211 377.25 121.93C377.291 123.433 376.924 124.918 376.19 126.23C375.48 127.435 374.475 128.44 373.27 129.15C372.257 129.711 371.165 130.112 370.03 130.34C370.881 130.584 371.69 130.955 372.43 131.44C372.982 131.905 373.479 132.431 373.91 133.01C374.402 133.585 374.834 134.208 375.2 134.87L379.68 143.53H369.24L364.3 134.39C363.906 133.517 363.338 132.734 362.63 132.09C361.963 131.631 361.17 131.39 360.36 131.4H359.55V143.53H350.27ZM359.55 125.75H363.44C364.267 125.685 365.087 125.548 365.89 125.34C366.489 125.224 367.024 124.889 367.39 124.4C367.775 123.907 367.98 123.296 367.97 122.67C367.995 122.253 367.925 121.836 367.766 121.45C367.606 121.063 367.362 120.718 367.05 120.44C366.013 119.818 364.803 119.547 363.6 119.67H359.55V125.75Z" fill="white"/>
<path d="M162.29 97.0001V74.7401H170.65C172.045 74.6872 173.437 74.9185 174.74 75.4201C175.744 75.8444 176.59 76.5716 177.16 77.5001C177.725 78.3774 178.03 79.3967 178.04 80.4401C178.042 81.3927 177.771 82.326 177.26 83.1301C176.682 84.0019 175.871 84.6946 174.92 85.1301C176.147 85.4409 177.238 86.1431 178.03 87.1301C178.756 88.1013 179.136 89.2877 179.11 90.5001C179.119 91.5082 178.893 92.5046 178.45 93.4101C178.079 94.2229 177.521 94.9359 176.82 95.4901C176.088 96.0152 175.258 96.3892 174.38 96.5901C173.203 96.8596 171.997 96.9839 170.79 96.9601L162.29 97.0001ZM165.29 84.0801H170.11C171.054 84.121 171.999 84.0335 172.92 83.8201C173.59 83.6506 174.184 83.2637 174.61 82.7201C175.005 82.1486 175.205 81.4645 175.18 80.7701C175.208 80.0654 175.023 79.3686 174.65 78.7701C174.305 78.2084 173.763 77.795 173.13 77.6101C172.019 77.3542 170.879 77.25 169.74 77.3001H165.29V84.0801ZM165.29 94.3701H170.84C171.508 94.3882 172.177 94.3548 172.84 94.2701C173.44 94.1766 174.017 93.9696 174.54 93.6601C175.019 93.3528 175.408 92.9252 175.67 92.4201C175.971 91.8399 176.122 91.1936 176.11 90.5401C176.13 89.7706 175.906 89.0146 175.47 88.3801C175.047 87.7582 174.421 87.3023 173.7 87.0901C172.639 86.7988 171.54 86.6707 170.44 86.7101H165.29V94.3701Z" fill="white"/>
<path d="M193.36 95.0001C192.492 95.7686 191.502 96.387 190.43 96.8301C189.47 97.1847 188.454 97.3642 187.43 97.3601C185.954 97.46 184.496 96.9953 183.35 96.0601C182.883 95.645 182.513 95.1325 182.266 94.5589C182.019 93.9852 181.901 93.3644 181.92 92.7401C181.913 92.0066 182.084 91.2824 182.421 90.6306C182.757 89.9787 183.248 89.419 183.85 89.0001C184.46 88.5881 185.137 88.2837 185.85 88.1001C186.651 87.9122 187.462 87.7753 188.28 87.6901C189.934 87.5391 191.568 87.2242 193.16 86.7501C193.16 86.3701 193.16 86.1401 193.16 86.0301C193.206 85.6062 193.161 85.1773 193.028 84.7721C192.896 84.3668 192.678 83.9946 192.39 83.6801C191.499 82.9984 190.389 82.6675 189.27 82.7501C188.273 82.6788 187.278 82.9162 186.42 83.4301C185.682 84.049 185.18 84.9039 185 85.8501L182.33 85.4901C182.509 84.4828 182.92 83.531 183.53 82.7101C184.183 81.9469 185.04 81.3851 186 81.0901C187.181 80.6904 188.423 80.4975 189.67 80.5201C190.799 80.4871 191.926 80.6495 193 81.0001C193.729 81.2391 194.384 81.6628 194.9 82.2301C195.328 82.7731 195.62 83.411 195.75 84.0901C195.866 84.9248 195.912 85.7677 195.89 86.6101V90.2601C195.845 91.8687 195.902 93.4786 196.06 95.0801C196.18 95.7608 196.413 96.4166 196.75 97.0201H193.9C193.599 96.3849 193.416 95.7005 193.36 95.0001ZM193.13 88.8901C191.683 89.3935 190.183 89.729 188.66 89.8901C187.845 89.9772 187.043 90.1584 186.27 90.4301C185.833 90.6179 185.458 90.9267 185.19 91.3201C184.879 91.8097 184.754 92.3943 184.836 92.9683C184.919 93.5423 185.204 94.0679 185.64 94.4501C186.335 94.9786 187.198 95.2379 188.07 95.1801C189.052 95.1944 190.02 94.9531 190.88 94.4801C191.666 94.0545 192.299 93.3936 192.69 92.5901C193.027 91.7175 193.176 90.7841 193.13 89.8501V88.8901Z" fill="white"/>
<path d="M210.61 97V95C210.143 95.7701 209.476 96.3996 208.68 96.8221C207.885 97.2445 206.99 97.4442 206.09 97.4C204.83 97.4042 203.597 97.0316 202.55 96.33C201.443 95.5917 200.571 94.5502 200.04 93.33C199.421 91.9543 199.117 90.458 199.15 88.95C199.131 87.4487 199.402 85.9579 199.95 84.56C200.426 83.3334 201.272 82.2851 202.37 81.56C203.445 80.8793 204.698 80.5314 205.97 80.56C206.874 80.5411 207.769 80.7509 208.57 81.17C209.304 81.559 209.94 82.1095 210.43 82.78V74.78H213.15V97H210.61ZM202 89C201.876 90.6496 202.34 92.2899 203.31 93.63C203.672 94.1042 204.138 94.4894 204.672 94.7563C205.206 95.0232 205.793 95.1647 206.39 95.17C206.977 95.1721 207.556 95.0409 208.084 94.7862C208.613 94.5315 209.076 94.1601 209.44 93.7C210.373 92.405 210.816 90.821 210.69 89.23C210.83 87.5097 210.382 85.7929 209.42 84.36C209.05 83.8757 208.574 83.4837 208.027 83.2147C207.481 82.9458 206.879 82.8072 206.27 82.81C205.69 82.8141 205.118 82.9504 204.598 83.2086C204.078 83.4668 203.624 83.84 203.27 84.3C202.328 85.6782 201.88 87.3348 202 89Z" fill="white"/>
<path d="M226.49 97V74.74H236.37C237.903 74.6737 239.437 74.8767 240.9 75.34C241.94 75.7495 242.814 76.4959 243.38 77.46C244 78.4702 244.322 79.6348 244.31 80.82C244.329 81.5552 244.202 82.2868 243.938 82.9732C243.674 83.6595 243.277 84.287 242.77 84.82C241.464 86.0351 239.78 86.7626 238 86.88C238.652 87.1683 239.261 87.5452 239.81 88C240.751 88.8914 241.575 89.8996 242.26 91L246.13 97H242.42L239.47 92.37C238.61 91.03 237.9 90.01 237.35 89.3C236.932 88.7267 236.426 88.2237 235.85 87.81C235.436 87.5367 234.98 87.3339 234.5 87.21C233.958 87.1267 233.409 87.0932 232.86 87.11H229.44V97H226.49ZM229.44 84.55H235.78C236.849 84.5926 237.917 84.454 238.94 84.14C239.651 83.8961 240.263 83.4253 240.68 82.8C241.067 82.2049 241.272 81.5098 241.27 80.8C241.283 80.3085 241.186 79.8203 240.987 79.3707C240.788 78.921 240.492 78.5212 240.12 78.2C239.073 77.441 237.788 77.0858 236.5 77.2H229.44V84.55Z" fill="white"/>
<path d="M259.63 91.83L262.46 92.17C262.098 93.6888 261.231 95.0394 260 96C258.444 97.017 256.595 97.4892 254.742 97.3426C252.889 97.196 251.137 96.439 249.76 95.19C248.297 93.4987 247.554 91.302 247.69 89.07C247.546 86.7709 248.298 84.5055 249.79 82.75C250.482 82.0067 251.326 81.421 252.265 81.0328C253.204 80.6445 254.215 80.4628 255.23 80.5C256.218 80.467 257.201 80.6464 258.114 81.0259C259.026 81.4054 259.847 81.9763 260.52 82.7C261.973 84.4272 262.707 86.6469 262.57 88.9C262.57 89.06 262.57 89.31 262.57 89.63H250.57C250.544 91.1202 251.051 92.5708 252 93.72C252.429 94.1814 252.952 94.5465 253.533 94.7913C254.114 95.036 254.74 95.1549 255.37 95.14C256.29 95.1684 257.194 94.8905 257.94 94.35C258.736 93.6922 259.324 92.8165 259.63 91.83ZM250.63 87.4H259.63C259.608 86.3064 259.26 85.2443 258.63 84.35C258.226 83.8415 257.71 83.4339 257.122 83.1597C256.533 82.8854 255.889 82.752 255.24 82.77C254.656 82.7511 254.074 82.8503 253.53 83.0616C252.985 83.273 252.488 83.5921 252.07 84C251.181 84.9112 250.673 86.1272 250.65 87.4H250.63Z" fill="white"/>
<path d="M276.18 103.21V95.31C275.712 95.9394 275.102 96.4498 274.4 96.8C273.645 97.1885 272.809 97.3908 271.96 97.39C271.017 97.3918 270.085 97.1868 269.23 96.7894C268.374 96.392 267.617 95.8119 267.01 95.09C265.542 93.334 264.798 91.0849 264.93 88.8C264.908 87.3035 265.198 85.8187 265.78 84.44C266.274 83.2337 267.13 82.2101 268.23 81.51C269.281 80.8498 270.499 80.5029 271.74 80.51C272.675 80.4826 273.601 80.6975 274.428 81.1338C275.255 81.5701 275.955 82.213 276.46 83V80.88H278.92V103.21H276.18ZM267.75 88.91C267.626 90.5705 268.086 92.2222 269.05 93.58C269.421 94.0614 269.896 94.4521 270.44 94.7224C270.984 94.9927 271.583 95.1355 272.19 95.14C272.769 95.1356 273.34 95.0001 273.86 94.7438C274.379 94.4875 274.834 94.117 275.19 93.66C276.136 92.3553 276.586 90.7565 276.46 89.15C276.581 87.4291 276.112 85.7182 275.13 84.3C274.768 83.807 274.297 83.4037 273.754 83.1211C273.212 82.8386 272.612 82.6842 272 82.67C271.416 82.6731 270.841 82.812 270.321 83.0759C269.8 83.3397 269.348 83.7211 269 84.19C268.058 85.5752 267.617 87.2403 267.75 88.91Z" fill="white"/>
<path d="M293.78 97V94.65C293.236 95.5101 292.478 96.2146 291.581 96.6948C290.684 97.175 289.677 97.4145 288.66 97.39C287.741 97.398 286.831 97.2106 285.99 96.84C285.269 96.5538 284.638 96.0809 284.16 95.47C283.733 94.8737 283.443 94.1909 283.31 93.47C283.175 92.6236 283.118 91.7667 283.14 90.91V80.91H285.88V89.91C285.849 90.8765 285.906 91.8438 286.05 92.8C286.192 93.4814 286.58 94.0866 287.14 94.5C287.746 94.922 288.472 95.1361 289.21 95.11C290.023 95.1119 290.821 94.8943 291.52 94.48C292.21 94.0962 292.749 93.4899 293.05 92.76C293.396 91.7474 293.549 90.6789 293.5 89.61V80.88H296.23V97H293.78Z" fill="white"/>
<path d="M311.57 91.8299L314.4 92.1699C314.029 93.6899 313.155 95.0398 311.92 95.9999C310.364 97.0169 308.515 97.4891 306.662 97.3425C304.809 97.1959 303.057 96.4389 301.68 95.1899C300.217 93.4986 299.474 91.302 299.61 89.0699C299.467 86.7727 300.216 84.509 301.7 82.7499C302.395 82.0074 303.241 81.4224 304.181 81.0342C305.121 80.6461 306.134 80.4639 307.15 80.4999C308.138 80.467 309.121 80.6463 310.034 81.0258C310.946 81.4053 311.767 81.9762 312.44 82.6999C313.893 84.4272 314.627 86.6468 314.49 88.8999C314.49 89.0599 314.49 89.3099 314.49 89.6299H302.49C302.486 91.1242 303.023 92.5695 304 93.6999C304.429 94.1623 304.951 94.5281 305.532 94.773C306.113 95.0178 306.74 95.1361 307.37 95.1199C308.29 95.1483 309.194 94.8704 309.94 94.3299C310.711 93.6695 311.277 92.8019 311.57 91.8299ZM302.57 87.3999H311.57C311.548 86.3063 311.2 85.2442 310.57 84.3499C310.165 83.8426 309.649 83.4359 309.061 83.1617C308.472 82.8876 307.829 82.7535 307.18 82.7699C306.594 82.7496 306.011 82.8481 305.464 83.0595C304.918 83.2709 304.42 83.5908 304 83.9999C303.115 84.9127 302.611 86.1285 302.59 87.3999H302.57Z" fill="white"/>
<path d="M316.74 92.21L319.44 91.78C319.532 92.7412 319.986 93.6315 320.71 94.27C321.547 94.8938 322.578 95.2019 323.62 95.14C324.614 95.2166 325.605 94.9443 326.42 94.37C326.7 94.1598 326.927 93.8882 327.085 93.5761C327.243 93.2639 327.327 92.9197 327.33 92.57C327.335 92.2781 327.264 91.9899 327.124 91.7339C326.983 91.4779 326.779 91.2628 326.53 91.11C325.637 90.6895 324.697 90.3773 323.73 90.18C322.304 89.8677 320.908 89.4293 319.56 88.87C318.847 88.5519 318.243 88.032 317.821 87.3745C317.4 86.7171 317.181 85.9507 317.19 85.17C317.186 84.4719 317.358 83.784 317.69 83.17C318.005 82.567 318.453 82.0437 319 81.64C319.532 81.2802 320.12 81.0099 320.74 80.84C321.511 80.6233 322.309 80.5156 323.11 80.52C324.243 80.4979 325.372 80.6808 326.44 81.06C327.278 81.3375 328.015 81.8558 328.56 82.55C329.085 83.2931 329.428 84.1496 329.56 85.05L326.88 85.41C326.846 85.0227 326.734 84.6462 326.552 84.3027C326.37 83.9592 326.121 83.6556 325.82 83.41C325.099 82.9067 324.228 82.6634 323.35 82.72C322.41 82.637 321.469 82.854 320.66 83.34C320.42 83.5021 320.222 83.7192 320.083 83.9731C319.944 84.2271 319.868 84.5105 319.86 84.8C319.85 85.1616 319.967 85.5154 320.19 85.8C320.47 86.1313 320.832 86.383 321.24 86.53C321.51 86.63 322.32 86.86 323.66 87.22C325.035 87.5603 326.387 87.9844 327.71 88.49C328.434 88.7908 329.058 89.29 329.51 89.93C329.964 90.6238 330.191 91.4415 330.16 92.27C330.159 93.1893 329.884 94.0875 329.37 94.85C328.783 95.6968 327.958 96.351 327 96.73C325.925 97.1843 324.767 97.4091 323.6 97.39C321.898 97.5043 320.208 97.0429 318.8 96.08C317.65 95.096 316.914 93.7136 316.74 92.21Z" fill="white"/>
<path d="M339.37 94.58L339.77 96.99C339.091 97.1471 338.397 97.2309 337.7 97.24C336.901 97.2849 336.105 97.1194 335.39 96.76C334.879 96.4882 334.471 96.0561 334.23 95.53C333.945 94.4785 333.833 93.3874 333.9 92.3V83H331.9V80.88H333.9V76.88L336.62 75.24V80.88H339.37V83H336.62V92.44C336.591 92.9442 336.638 93.4499 336.76 93.94C336.86 94.1626 337.023 94.3506 337.23 94.48C337.521 94.6244 337.845 94.6899 338.17 94.67C338.572 94.6668 338.972 94.6367 339.37 94.58Z" fill="white"/>
</svg>
